<svg width="190" height="41" viewBox="0 0 190 41" fill="none" xmlns="http://www.w3.org/2000/svg">
<path d="M17.5 33.2402C24.9558 33.2402 31 27.1961 31 19.7402C31 12.2844 24.9558 6.24023 17.5 6.24023C10.0442 6.24023 4 12.2844 4 19.7402C4 27.1961 10.0442 33.2402 17.5 33.2402Z" fill="url(#paint0_linear_1904_347)"/>
<path d="M10.4286 15.3753C14.6075 14.3295 18.7766 13.2862 22.9559 12.2402C23.1752 13.0882 23.3923 13.9281 23.6118 14.7773C20.3486 15.5939 17.0907 16.4094 13.8329 17.2248C13.8336 17.23 13.8342 17.2351 13.835 17.2403H23.9228C23.9245 17.2772 23.9274 17.307 23.9274 17.3371C23.9276 19.528 23.9287 21.7191 23.927 23.91C23.926 25.1335 22.9172 26.1727 21.6794 26.2298C21.5589 26.2354 21.4381 26.2388 21.3174 26.2388C18.6832 26.2394 16.049 26.2397 13.415 26.2388C12.7566 26.2386 12.1814 26.0191 11.7114 25.5657C11.2836 25.1528 11.0414 24.6465 11.0043 24.0528C10.9969 23.9343 10.9946 23.8154 10.9946 23.6967C10.994 21.7591 10.9931 19.8216 10.9959 17.8842C10.9963 17.6825 10.9738 17.4881 10.9213 17.2924C10.7567 16.6797 10.6021 16.0646 10.4438 15.4502C10.4385 15.4296 10.4353 15.4084 10.4286 15.3753ZM11.6049 19.8678V19.9694C11.6049 21.2777 11.6047 22.5861 11.6057 23.8943C11.6057 23.9658 11.612 24.0379 11.6228 24.1087C11.7616 25.0137 12.5004 25.6385 13.4305 25.6385C16.0963 25.6385 18.7622 25.6385 21.4281 25.6382C21.5011 25.6382 21.5742 25.6348 21.6469 25.6295C22.5983 25.5613 23.3167 24.8007 23.3167 23.8612C23.3167 22.5684 23.3167 21.2759 23.3167 19.9831V19.8678H11.6049ZM13.4705 17.8438C13.4906 17.8759 13.5024 17.897 13.5162 17.9165C13.8161 18.3421 14.1171 18.7669 14.4147 19.1941C14.4495 19.244 14.4836 19.2639 14.5453 19.2634C14.9044 19.2605 15.2635 19.262 15.6225 19.2617C15.6496 19.2617 15.6768 19.2579 15.7073 19.2555C15.7006 19.2382 15.6991 19.2284 15.6939 19.2211C15.3824 18.7771 15.0714 18.3325 14.7566 17.8906C14.7379 17.8643 14.6894 17.8464 14.6543 17.8455C14.4605 17.8412 14.2666 17.8434 14.0728 17.8434C13.877 17.8434 13.6811 17.8438 13.4705 17.8438ZM18.6032 19.262C18.5813 19.226 18.5696 19.204 18.5555 19.1839C18.2552 18.7577 17.9536 18.3325 17.6552 17.905C17.6218 17.8573 17.5873 17.8423 17.5308 17.8425C17.1681 17.8448 16.8053 17.8436 16.4426 17.8438C16.419 17.8438 16.3953 17.8461 16.3602 17.8479C16.3772 17.8742 16.3865 17.8896 16.3966 17.9041C16.6725 18.2974 16.9565 18.6854 17.2204 19.0864C17.3149 19.2299 17.4181 19.2722 17.5838 19.2658C17.9169 19.2528 18.251 19.262 18.6032 19.262ZM19.2443 17.8438C19.2651 17.8769 19.2767 17.8977 19.2903 17.9173C19.5906 18.3432 19.8922 18.7683 20.19 19.1957C20.2253 19.2466 20.2614 19.2637 20.3217 19.2632C20.6779 19.2607 21.0341 19.262 21.3903 19.2617C21.418 19.2617 21.4455 19.2583 21.4814 19.256C21.4709 19.2348 21.4659 19.2205 21.4577 19.2087C21.1494 18.7692 20.8415 18.3295 20.5302 17.8921C20.5114 17.8658 20.4641 17.8464 20.4297 17.8457C20.2232 17.8414 20.0163 17.8436 19.8095 17.8436C19.6263 17.8436 19.443 17.8438 19.2443 17.8438ZM21.0964 14.7844C21.0757 14.763 21.0679 14.7532 21.0586 14.7452C20.6476 14.3926 20.2369 14.0395 19.824 13.689C19.8032 13.6714 19.7605 13.6639 19.7328 13.6706C19.3634 13.7602 18.9948 13.8534 18.6259 13.9458C18.6124 13.9492 18.6 13.9561 18.5652 13.97C18.5948 13.9892 18.612 13.9978 18.6261 14.0098C18.9782 14.3102 19.3372 14.6034 19.6782 14.9155C19.82 15.0453 19.9441 15.0904 20.1352 15.0308C20.4456 14.9339 20.7659 14.8674 21.0964 14.7844ZM15.4986 16.1855C15.4836 16.166 15.4778 16.1549 15.4691 16.1472C15.0647 15.8022 14.6591 15.4587 14.2572 15.111C14.2072 15.0678 14.1683 15.0611 14.1064 15.0772C13.8061 15.1555 13.5043 15.228 13.2033 15.303C13.1338 15.3203 13.0649 15.3392 12.9773 15.3623C13.0761 15.4474 13.1613 15.5205 13.2462 15.5935C13.5732 15.8743 13.8995 16.1559 14.2286 16.4342C14.2572 16.4585 14.309 16.4797 14.3424 16.4718C14.7242 16.3809 15.1046 16.2842 15.4986 16.1855ZM15.7861 14.6571C15.7966 14.6768 15.7982 14.6837 15.8026 14.6873C16.2155 15.0421 16.6278 15.3975 17.0436 15.7491C17.0703 15.7716 17.1268 15.7767 17.164 15.7678C17.5122 15.6844 17.8591 15.5964 18.2063 15.5092C18.235 15.5021 18.2627 15.4919 18.3029 15.4795C17.8919 15.1276 17.4905 14.7887 17.0961 14.4424C17.013 14.3695 16.9401 14.3549 16.841 14.3913C16.7733 14.4163 16.7002 14.4272 16.6295 14.445C16.3508 14.5151 16.0721 14.5849 15.7861 14.6571ZM11.6095 19.2564H12.815C12.8142 19.245 12.8159 19.2376 12.8131 19.2335C12.4962 18.782 12.1793 18.3305 11.8607 17.8799C11.8485 17.8626 11.8223 17.847 11.8015 17.8455C11.7393 17.841 11.6765 17.8438 11.6097 17.8438L11.6095 19.2564ZM11.5232 17.1804C11.9203 17.0809 12.308 16.9838 12.7209 16.8803C12.6854 16.8544 12.6667 16.8427 12.6501 16.8285C12.2694 16.5041 11.8889 16.1795 11.5087 15.8548C11.3817 15.7464 11.3361 15.7417 11.1727 15.827C11.2888 16.275 11.405 16.724 11.5232 17.1804ZM22.1289 17.8472C22.4405 18.2895 22.7465 18.7147 23.0405 19.1478C23.1138 19.2558 23.1924 19.2829 23.3106 19.2512V17.847L22.1289 17.8472ZM22.5126 12.9727C22.1303 13.0689 21.7588 13.1622 21.3871 13.2556L21.3783 13.2822C21.3947 13.2922 21.4127 13.3003 21.427 13.3125C21.8052 13.6346 22.1868 13.9527 22.5581 14.2822C22.6562 14.3691 22.74 14.4011 22.8633 14.3293C22.7474 13.881 22.6308 13.4295 22.5126 12.9727Z" fill="white"/>
<path d="M16.3951 21.0146C16.4152 21.024 16.444 21.0351 16.4707 21.0501C17.2734 21.5054 18.076 21.961 18.8785 22.4165C19.0242 22.4991 19.1698 22.5819 19.3153 22.665C19.4252 22.7279 19.4256 22.8118 19.3143 22.8751C18.4984 23.3392 17.6821 23.8026 16.8661 24.2661C16.7341 24.3411 16.6026 24.4166 16.4699 24.4904C16.3562 24.5537 16.2827 24.5142 16.2827 24.3878C16.2821 23.3079 16.2827 22.2279 16.2819 21.1479C16.2819 21.0769 16.3027 21.0257 16.3951 21.0146Z" fill="white"/>
<path fill-rule="evenodd" clip-rule="evenodd" d="M86.433 23.7402V29.2406H90.273V23.7402H86.433ZM81.0353 23.7402L78.6217 29.2406H75.5978L73.2982 23.7402H76.9262L77.2385 24.6795L77.5571 23.7402H81.0353ZM86.433 22.2402H90.273V16.4966H86.433V22.2402ZM93.0346 23.7402C93.1332 24.6806 93.4073 25.5381 93.8571 26.3126C94.4331 27.2886 95.2411 28.0646 96.2811 28.6406C97.3211 29.2006 98.5451 29.4806 99.9531 29.4806C100.529 29.4806 101.105 29.4086 101.681 29.2646C102.273 29.1366 102.849 28.9366 103.409 28.6646C103.969 28.3926 104.497 28.0406 104.993 27.6086L103.193 25.0646C102.697 25.4486 102.233 25.7206 101.801 25.8806C101.385 26.0406 100.905 26.1206 100.361 26.1206C99.5771 26.1206 98.8971 25.9766 98.3211 25.6886C97.7611 25.4006 97.3291 25.0006 97.0251 24.4886C96.8983 24.2562 96.7994 24.0067 96.7285 23.7402H93.0346ZM105.5 22.2402H93.0207C93.079 21.5275 93.2298 20.8609 93.4731 20.2406C93.7931 19.4246 94.2411 18.7206 94.8171 18.1286C95.3931 17.5206 96.0731 17.0566 96.8571 16.7366C97.6571 16.4006 98.5291 16.2326 99.4731 16.2326C100.369 16.2326 101.185 16.3926 101.921 16.7126C102.673 17.0326 103.321 17.4806 103.865 18.0566C104.409 18.6326 104.825 19.3126 105.113 20.0966C105.357 20.7596 105.486 21.4742 105.5 22.2402ZM81.6935 22.2402H78.0658L80.0138 16.4966H84.2138L81.6935 22.2402ZM76.4275 22.2402L74.5177 16.4966H70.2697L72.671 22.2402H76.4275ZM69.5026 22.2402C69.4216 21.2089 69.1335 20.2784 68.6383 19.4486C68.0463 18.4566 67.2303 17.6726 66.1903 17.0966C65.1663 16.5206 63.9903 16.2326 62.6623 16.2326C61.3343 16.2326 60.1503 16.5206 59.1103 17.0966C58.0863 17.6726 57.2703 18.4566 56.6623 19.4486C56.1671 20.2784 55.879 21.2089 55.7981 22.2402H59.7157C59.7655 21.8457 59.8757 21.4832 60.0463 21.1526C60.3023 20.6406 60.6543 20.2406 61.1023 19.9526C61.5663 19.6646 62.0863 19.5206 62.6623 19.5206C63.2383 19.5206 63.7503 19.6646 64.1983 19.9526C64.6463 20.2406 64.9983 20.6406 65.2543 21.1526C65.4249 21.4832 65.5351 21.8457 65.5849 22.2402H69.5026ZM59.7597 23.7402C59.8194 24.0326 59.915 24.3061 60.0463 24.5606C60.3023 25.0566 60.6543 25.4486 61.1023 25.7366C61.5663 26.0246 62.0863 26.1686 62.6623 26.1686C63.2383 26.1686 63.7503 26.0246 64.1983 25.7366C64.6463 25.4486 64.9983 25.0566 65.2543 24.5606C65.3857 24.3061 65.4812 24.0326 65.541 23.7402H69.4767C69.3698 24.6657 69.0904 25.5071 68.6383 26.2646C68.0463 27.2566 67.2303 28.0406 66.1903 28.6166C65.1663 29.1926 63.9903 29.4806 62.6623 29.4806C61.3343 29.4806 60.1503 29.1926 59.1103 28.6166C58.0863 28.0406 57.2703 27.2566 56.6623 26.2646C56.2103 25.5071 55.9308 24.6657 55.8239 23.7402H59.7597ZM86.649 13.4726C87.065 13.8086 87.633 13.9766 88.353 13.9766C89.057 13.9766 89.609 13.7926 90.009 13.4246C90.425 13.0566 90.633 12.5766 90.633 11.9846C90.633 11.3606 90.433 10.8806 90.033 10.5446C89.633 10.1926 89.073 10.0166 88.353 10.0166C87.649 10.0166 87.089 10.2006 86.673 10.5686C86.257 10.9366 86.049 11.4086 86.049 11.9846C86.049 12.6246 86.249 13.1206 86.649 13.4726ZM36 12.4406V29.2406H39.96V24.0086C39.96 22.4566 39.92 21.1206 39.84 20.0006C39.8245 19.7252 39.8057 19.4516 39.7836 19.1799L43.584 25.1606H45.168L49.0665 19.1119C49.0349 19.4474 49.0074 19.7837 48.984 20.1206C48.92 21.2726 48.888 22.5686 48.888 24.0086V29.2406H52.848V12.4406H49.344L44.4618 20.2748L39.648 12.4406H36ZM96.9291 20.9126C96.8377 21.102 96.7649 21.31 96.7108 21.5366H101.945V21.5126C101.913 21.1126 101.785 20.7606 101.561 20.4566C101.353 20.1366 101.073 19.8886 100.721 19.7126C100.369 19.5366 99.9691 19.4486 99.5211 19.4486C98.8971 19.4486 98.3611 19.5766 97.9131 19.8326C97.4811 20.0726 97.1531 20.4326 96.9291 20.9126ZM116.039 12.4406V29.2406H120.119V22.8086H126.623V19.4006H120.119V16.0406H127.607V12.4406H120.119H117.935H116.039ZM130.491 29.2406V23.7402H134.331V29.2406H130.491ZM134.331 22.2402H130.491V11.4806H134.331V22.2402ZM137.972 29.2406V23.7402H141.812V29.2406H137.972ZM137.972 16.4966V22.2402H141.812V16.4966H137.972ZM145.372 26.2646C144.946 25.4973 144.682 24.6559 144.58 23.7402H148.399C148.463 24.0112 148.558 24.2687 148.684 24.5126C148.956 25.0086 149.324 25.4006 149.788 25.6886C150.252 25.9766 150.78 26.1206 151.372 26.1206C151.788 26.1206 152.172 26.0726 152.524 25.9766C152.876 25.8646 153.196 25.7046 153.484 25.4966C153.788 25.2886 154.068 25.0326 154.324 24.7286L156.388 27.2486C155.844 27.9366 155.084 28.4806 154.108 28.8806C153.148 29.2806 152.116 29.4806 151.012 29.4806C149.78 29.4806 148.676 29.1926 147.7 28.6166C146.724 28.0406 145.948 27.2566 145.372 26.2646ZM144.555 22.2402H148.343C148.4 21.8457 148.514 21.4832 148.684 21.1526C148.94 20.6566 149.3 20.2726 149.764 20.0006C150.228 19.7126 150.764 19.5686 151.372 19.5686C151.772 19.5686 152.156 19.6326 152.524 19.7606C152.892 19.8886 153.228 20.0646 153.532 20.2886C153.836 20.5126 154.1 20.7526 154.324 21.0086L156.412 18.5126C155.852 17.7926 155.092 17.2326 154.132 16.8326C153.188 16.4326 152.148 16.2326 151.012 16.2326C149.78 16.2326 148.676 16.5206 147.7 17.0966C146.724 17.6726 145.948 18.4646 145.372 19.4726C144.905 20.3004 144.632 21.223 144.555 22.2402ZM158.498 29.2406V23.7402H167.291L171.674 29.2406H167.138L163.384 24.3816L162.338 25.3616V29.2406H158.498ZM158.498 22.2402H166.095L165.912 22.0109L171.794 16.4966H166.73L162.338 21.0126V11.4806H158.498V22.2402ZM176.885 24.2726C176.272 24.1163 175.724 23.9389 175.239 23.7402H182.644C182.709 23.8631 182.765 23.9926 182.812 24.1286C182.941 24.4806 183.005 24.8646 183.005 25.2806C183.005 26.0966 182.773 26.8246 182.309 27.4646C181.861 28.0886 181.236 28.5846 180.436 28.9526C179.636 29.3046 178.725 29.4806 177.701 29.4806C176.452 29.4806 175.349 29.2806 174.389 28.8806C173.445 28.4806 172.693 27.9446 172.133 27.2726L174.46 25.2566C174.956 25.7526 175.517 26.1206 176.141 26.3606C176.764 26.5846 177.357 26.6966 177.917 26.6966C178.141 26.6966 178.34 26.6726 178.516 26.6246C178.692 26.5766 178.837 26.5126 178.949 26.4326C179.077 26.3366 179.173 26.2326 179.236 26.1206C179.3 25.9926 179.333 25.8486 179.333 25.6886C179.333 25.3686 179.188 25.1206 178.9 24.9446C178.757 24.8646 178.516 24.7686 178.18 24.6566C177.844 24.5446 177.413 24.4166 176.885 24.2726ZM173.219 22.2402H180.906C180.369 21.9907 179.732 21.7642 178.997 21.5606C178.389 21.3846 177.909 21.2406 177.557 21.1286C177.204 21.0006 176.949 20.8886 176.788 20.7926C176.628 20.6966 176.5 20.5766 176.404 20.4326C176.324 20.2886 176.285 20.1366 176.285 19.9766C176.285 19.8166 176.316 19.6806 176.38 19.5686C176.444 19.4406 176.54 19.3366 176.669 19.2566C176.797 19.1606 176.949 19.0966 177.124 19.0646C177.316 19.0166 177.533 18.9926 177.773 18.9926C178.092 18.9926 178.445 19.0566 178.829 19.1846C179.213 19.3126 179.58 19.4886 179.932 19.7126C180.3 19.9206 180.629 20.1606 180.917 20.4326L182.932 18.1766C182.5 17.7766 182.005 17.4326 181.445 17.1446C180.9 16.8566 180.309 16.6326 179.669 16.4726C179.029 16.3126 178.356 16.2326 177.652 16.2326C176.996 16.2326 176.356 16.3286 175.732 16.5206C175.124 16.6966 174.58 16.9606 174.1 17.3126C173.636 17.6646 173.26 18.0806 172.973 18.5606C172.701 19.0406 172.564 19.5766 172.564 20.1686C172.564 20.6806 172.653 21.1446 172.829 21.5606C172.933 21.7985 173.063 22.025 173.219 22.2402ZM138.188 13.4726C138.604 13.8086 139.172 13.9766 139.892 13.9766C140.596 13.9766 141.148 13.7926 141.548 13.4246C141.964 13.0566 142.172 12.5766 142.172 11.9846C142.172 11.3606 141.972 10.8806 141.572 10.5446C141.172 10.1926 140.612 10.0166 139.892 10.0166C139.188 10.0166 138.628 10.2006 138.212 10.5686C137.796 10.9366 137.588 11.4086 137.588 11.9846C137.588 12.6246 137.788 13.1206 138.188 13.4726Z" fill="url(#paint1_linear_1904_347)"/>
<defs>
<linearGradient id="paint0_linear_1904_347" x1="4.66832" y1="24.35" x2="34.1078" y2="14.2288" gradientUnits="userSpaceOnUse">
<stop stop-color="#F89E00"/>
<stop offset="1" stop-color="#DA2F68"/>
</linearGradient>
<linearGradient id="paint1_linear_1904_347" x1="34.2657" y1="30.0484" x2="190.252" y2="24.5186" gradientUnits="userSpaceOnUse">
<stop stop-color="#F89E00"/>
<stop offset="1" stop-color="#DA2F68"/>
</linearGradient>
</defs>
</svg>
